<?xml version="1.0" encoding="utf-8"?>
<!-- Generator: Adobe Illustrator 16.0.4, SVG Export Plug-In . SVG Version: 6.00 Build 0)  -->
<!DOCTYPE svg PUBLIC "-//W3C//DTD SVG 1.1//EN" "http://www.w3.org/Graphics/SVG/1.1/DTD/svg11.dtd">
<svg version="1.1" id="Layer_1" xmlns="http://www.w3.org/2000/svg" xmlns:xlink="http://www.w3.org/1999/xlink" x="0px" y="0px"
	 width="36px" height="36px" viewBox="0 0 36 36" enable-background="new 0 0 36 36" xml:space="preserve">
<circle fill="#FFFFFF" cx="18" cy="18" r="18"/>
<g>
	<g>
		<g>
			<path fill="#FE3E4D" d="M25.071,10.929c0.389,0.389,0.389,1.026,0,1.415L12.343,25.071c-0.389,0.389-1.025,0.389-1.414,0V25.07
				c-0.389-0.389-0.389-1.025,0-1.414l12.729-12.728C24.046,10.54,24.683,10.54,25.071,10.929L25.071,10.929z"/>
		</g>
		<g>
			<path fill="#FE3E4D" d="M10.929,10.929c0.389-0.389,1.025-0.389,1.414,0l12.729,12.729c0.389,0.389,0.389,1.025,0,1.414
				s-1.025,0.389-1.414,0L10.929,12.344C10.54,11.955,10.54,11.318,10.929,10.929L10.929,10.929z"/>
		</g>
	</g>
</g>
</svg>
